<?xml version="1.0" standalone="no"?>
<!DOCTYPE svg PUBLIC "-//W3C//DTD SVG 20010904//EN"
 "http://www.w3.org/TR/2001/REC-SVG-20010904/DTD/svg10.dtd">
<svg version="1.0" xmlns="http://www.w3.org/2000/svg"
 width="201.000000pt" height="52.000000pt" viewBox="0 0 201.000000 52.000000"
 preserveAspectRatio="xMidYMid meet">

<g transform="translate(0.000000,52.000000) scale(0.100000,-0.100000)"
fill="#000000" stroke="none">
<path d="M152 404 c-20 -13 -23 -25 -23 -72 1 -32 1 -70 0 -87 -1 -129 0 -133
23 -149 12 -9 28 -16 35 -16 18 0 16 27 -2 34 -11 4 -15 21 -15 59 0 29 -5 58
-11 64 -8 8 -8 13 0 17 6 4 11 32 11 62 0 39 4 56 15 60 18 7 20 44 2 44 -7 0
-23 -7 -35 -16z"/>
<path d="M900 408 c0 -7 9 -21 20 -31 16 -13 19 -24 14 -60 -5 -31 -2 -47 8
-58 13 -13 13 -16 0 -28 -10 -10 -13 -26 -9 -54 6 -46 0 -67 -19 -67 -8 0 -14
-7 -14 -15 0 -22 37 -18 61 6 18 18 20 28 14 66 -4 29 -2 49 5 58 8 9 9 22 4
32 -4 10 -8 44 -9 75 0 62 -6 73 -47 83 -21 5 -28 3 -28 -7z"/>
<path d="M510 275 l0 -135 25 0 25 0 0 135 0 135 -25 0 -25 0 0 -135z"/>
<path d="M610 275 l0 -135 25 0 25 0 0 135 0 135 -25 0 -25 0 0 -135z"/>
<path d="M1694 396 c-10 -26 0 -51 21 -51 16 0 20 7 20 30 0 33 -30 49 -41 21z"/>
<path d="M273 271 l-51 -131 28 0 c22 0 30 6 39 30 9 28 13 30 63 30 50 0 54
-2 65 -30 8 -23 18 -30 37 -30 l26 0 -26 68 c-14 37 -36 94 -49 127 -20 53
-26 60 -52 63 -29 3 -30 1 -80 -127z m101 22 c9 -26 16 -48 16 -50 0 -2 -18
-3 -39 -3 l-39 0 16 50 c9 28 19 50 23 50 4 0 14 -21 23 -47z"/>
<path d="M1070 375 c0 -22 4 -25 40 -25 l40 0 0 -105 0 -105 25 0 25 0 0 105
0 105 35 0 c31 0 35 3 35 25 l0 25 -100 0 -100 0 0 -25z"/>
<path d="M730 243 l38 -88 -19 -37 -19 -38 24 0 c21 0 30 13 71 113 26 61 50
118 52 125 3 8 -4 12 -20 12 -23 0 -28 -7 -43 -55 -10 -30 -20 -55 -24 -55 -3
0 -14 25 -25 55 -16 49 -21 55 -46 55 l-27 0 38 -87z"/>
<path d="M1305 318 c-33 -19 -44 -41 -44 -83 0 -87 89 -127 150 -66 75 75 -15
201 -106 149z m74 -42 c17 -20 10 -77 -11 -90 -26 -16 -52 4 -56 43 -4 36 12
61 38 61 10 0 23 -6 29 -14z"/>
<path d="M1480 205 l0 -125 25 0 c22 0 25 4 25 35 0 33 1 34 30 29 24 -5 35
-1 60 24 67 67 13 189 -67 153 -19 -9 -29 -9 -31 -2 -2 6 -12 11 -23 11 -18 0
-19 -8 -19 -125z m116 59 c11 -41 -7 -79 -36 -79 -22 0 -25 5 -28 39 -4 51 3
66 32 66 19 0 27 -7 32 -26z"/>
<path d="M1690 235 c0 -95 0 -95 25 -95 25 0 25 0 25 95 0 95 0 95 -25 95 -25
0 -25 0 -25 -95z"/>
<path d="M1825 318 c-33 -19 -44 -41 -45 -84 0 -69 58 -110 121 -84 38 16 32
36 -11 32 -42 -3 -60 13 -60 53 0 41 20 59 59 50 31 -6 51 9 34 26 -16 16 -77
20 -98 7z"/>
</g>
</svg>
