<?xml version="1.0" encoding="UTF-8"?>
<svg version="1.1" xmlns="http://www.w3.org/2000/svg" width="99" height="130">
<path d="M0 0 C2.08304538 -0.05418326 4.16649768 -0.09287551 6.25 -0.125 C7.99023438 -0.15980469 7.99023438 -0.15980469 9.765625 -0.1953125 C12.86675404 -0.00804625 14.53164862 0.1501953 17 2 C19.05710971 6.44862641 19.02299152 11.8075201 19.19921875 16.640625 C19.23055908 17.46957275 19.26189941 18.29852051 19.29418945 19.15258789 C19.3471132 20.81273079 19.38150959 22.47359217 19.39526367 24.13452148 C19.55366784 29.86828139 20.79456565 33.23016043 24 38 C23.35289063 38.79921875 22.70578125 39.5984375 22.0390625 40.421875 C19.3100317 44.52383671 19.41388424 48.44779575 19.375 53.25 C19.322822 54.94157172 19.26557521 56.63299511 19.203125 58.32421875 C19.15961914 59.53343994 19.15961914 59.53343994 19.11523438 60.76708984 C18.90369662 64.86608199 18.55274535 69.17047636 17 73 C13.63000798 75.24666134 12.43894538 75.2457371 8.5 75.1875 C7.06140625 75.17783203 7.06140625 75.17783203 5.59375 75.16796875 C3 75 3 75 0 74 C0 72.02 0 70.04 0 68 C5.445 67.505 5.445 67.505 11 67 C10.94779297 64.47085938 10.94779297 64.47085938 10.89453125 61.890625 C10.86639314 59.67709329 10.839093 57.46355081 10.8125 55.25 C10.78736328 54.13882813 10.76222656 53.02765625 10.73632812 51.8828125 C10.72666016 50.81289062 10.71699219 49.74296875 10.70703125 48.640625 C10.68346558 47.16384277 10.68346558 47.16384277 10.65942383 45.65722656 C11.05330192 42.58413041 12.11279315 41.38269097 14 39 C13.33903214 36.34754398 13.33903214 36.34754398 12 34 C10.74161443 31.48322887 10.79181027 29.58706712 10.68359375 26.7734375 C10.64169922 25.7421875 10.59980469 24.7109375 10.55664062 23.6484375 C10.51732422 22.56820312 10.47800781 21.48796875 10.4375 20.375 C10.39431641 19.28703125 10.35113281 18.1990625 10.30664062 17.078125 C10.2003547 14.3855483 10.09831943 11.69287747 10 9 C7.36 8.67 4.72 8.34 2 8 C0.74335022 5.09399739 0 3.20395416 0 0 Z " fill="#00009F" transform="translate(70,24)"/>
<path d="M0 0 C1.37163873 0.0265051 2.74300063 0.0740941 4.11328125 0.140625 C5.16612305 0.16769531 5.16612305 0.16769531 6.24023438 0.1953125 C7.96933561 0.24236287 9.6977333 0.31410627 11.42578125 0.390625 C10.76578125 2.700625 10.10578125 5.010625 9.42578125 7.390625 C6.78578125 7.720625 4.14578125 8.050625 1.42578125 8.390625 C1.41119873 9.09670898 1.39661621 9.80279297 1.3815918 10.53027344 C1.30704958 13.73427174 1.2104092 16.93723516 1.11328125 20.140625 C1.07944336 21.80738281 1.07944336 21.80738281 1.04492188 23.5078125 C1.00947266 24.57773437 0.97402344 25.64765625 0.9375 26.75 C0.91131592 27.73452148 0.88513184 28.71904297 0.8581543 29.73339844 C0.36682858 32.75292927 -0.72170784 34.02414654 -2.57421875 36.390625 C-1.90650692 38.78325907 -1.3532449 40.61159885 0.42578125 42.390625 C0.5834253 44.16932226 0.67678802 45.95380976 0.7421875 47.73828125 C0.8050293 49.35766602 0.8050293 49.35766602 0.86914062 51.00976562 C0.90845703 52.14607422 0.94777344 53.28238281 0.98828125 54.453125 C1.03146484 55.59330078 1.07464844 56.73347656 1.11914062 57.90820312 C1.22560964 60.73554695 1.32762332 63.56298238 1.42578125 66.390625 C4.72578125 66.720625 8.02578125 67.050625 11.42578125 67.390625 C11.42578125 69.700625 11.42578125 72.010625 11.42578125 74.390625 C9.53168147 74.61417107 7.63534645 74.81882451 5.73828125 75.015625 C4.68253906 75.13164063 3.62679688 75.24765625 2.5390625 75.3671875 C-0.81077561 75.39240585 -2.715275 75.13974622 -5.57421875 73.390625 C-6.46484375 71.203125 -6.46484375 71.203125 -6.82421875 68.390625 C-6.96601563 67.32585937 -7.1078125 66.26109375 -7.25390625 65.1640625 C-7.49136727 62.3666558 -7.66384076 59.60722751 -7.76953125 56.8046875 C-7.80143555 56.01320312 -7.83333984 55.22171875 -7.86621094 54.40625 C-7.9205353 52.84170837 -7.95579696 51.27636001 -7.96972656 49.7109375 C-8.12689352 44.38133558 -9.24231584 41.57209678 -12.57421875 37.390625 C-11.93613281 36.68164062 -11.29804688 35.97265625 -10.640625 35.2421875 C-7.21435521 30.10353717 -7.74818949 23.73099341 -7.51171875 17.765625 C-7.40833096 15.33537363 -7.29295535 12.9055947 -7.1640625 10.4765625 C-7.12144287 9.4045459 -7.07882324 8.3325293 -7.03491211 7.22802734 C-6.24236558 2.34674713 -4.96562439 0.54269119 0 0 Z " fill="#00009F" transform="translate(19.57421875,24.609375)"/>
</svg>
